<?xml version="1.0" encoding="UTF-8" standalone="no"?>
<!-- Created with Inkscape (http://www.inkscape.org/) -->

<svg
   version="1.1"
   id="svg2"
   width="581.05469"
   height="228.036"
   viewBox="0 0 581.05469 228.036"
   sodipodi:docname="sarawak-energy-seeklogo.ai"
   xmlns:inkscape="http://www.inkscape.org/namespaces/inkscape"
   xmlns:sodipodi="http://sodipodi.sourceforge.net/DTD/sodipodi-0.dtd"
   xmlns="http://www.w3.org/2000/svg"
   xmlns:svg="http://www.w3.org/2000/svg">
  <defs
     id="defs6">
    <linearGradient
       x1="0"
       y1="0"
       x2="1"
       y2="0"
       gradientUnits="userSpaceOnUse"
       gradientTransform="matrix(38.370525,0,0,-38.370525,198.82404,73.787994)"
       spreadMethod="pad"
       id="linearGradient28">
      <stop
         style="stop-opacity:1;stop-color:#dff2fd"
         offset="0"
         id="stop22" />
      <stop
         style="stop-opacity:1;stop-color:#007bc2"
         offset="0.67016942"
         id="stop24" />
      <stop
         style="stop-opacity:1;stop-color:#007bc2"
         offset="1"
         id="stop26" />
    </linearGradient>
    <clipPath
       clipPathUnits="userSpaceOnUse"
       id="clipPath38">
      <path
         d="M 0,171.027 H 435.791 V 0 H 0 Z"
         id="path36" />
    </clipPath>
    <linearGradient
       x1="0"
       y1="0"
       x2="1"
       y2="0"
       gradientUnits="userSpaceOnUse"
       gradientTransform="matrix(38.37537,0,0,-38.37537,216.17299,97.240601)"
       spreadMethod="pad"
       id="linearGradient62">
      <stop
         style="stop-opacity:1;stop-color:#fcec45"
         offset="0"
         id="stop56" />
      <stop
         style="stop-opacity:1;stop-color:#fcec45"
         offset="0.3856022"
         id="stop58" />
      <stop
         style="stop-opacity:1;stop-color:#3aaa35"
         offset="1"
         id="stop60" />
    </linearGradient>
  </defs>
  <sodipodi:namedview
     id="namedview4"
     pagecolor="#ffffff"
     bordercolor="#000000"
     borderopacity="0.25"
     inkscape:showpageshadow="2"
     inkscape:pageopacity="0.0"
     inkscape:pagecheckerboard="0"
     inkscape:deskcolor="#d1d1d1" />
  <g
     id="g8"
     inkscape:groupmode="layer"
     inkscape:label="sarawak-energy-seeklogo"
     transform="matrix(1.3333333,0,0,-1.3333333,0,228.036)">
    <g
       id="g10">
      <g
         id="g12">
        <g
           id="g18">
          <g
             id="g20">
            <path
               d="m 211.175,71.059 c 27.664,-36.12 14.797,-60.156 14.797,-60.156 v 0 c 0,0 27.863,25.446 -4.217,72.568 v 0 c -24.596,36.14 -10.783,53.202 -10.783,53.202 v 0 c 0,0 -27.467,-29.496 0.203,-65.614"
               style="fill:url(#linearGradient28);stroke:none"
               id="path30" />
          </g>
        </g>
      </g>
    </g>
    <g
       id="g32">
      <g
         id="g34"
         clip-path="url(#clipPath38)">
        <g
           id="g40"
           transform="translate(408.0091,72.9254)">
          <path
             d="M 0,0 H -6.215 L -10.954,-19.914 -16.831,0 h -6.518 l 10.015,-25.935 -0.352,-1.439 c -0.742,-3.086 -1.848,-4.429 -3.689,-4.429 -1.435,0 -4.672,0.744 -4.672,0.744 v -4.429 c 0,0 2.741,-0.848 5.124,-0.848 3.138,0 6.27,0.999 7.92,6.476 z m -30.361,-4.079 h 4.481 V 0 h -8.021 c -1.694,0 -2.34,0.501 -4.577,0.501 -5.779,0 -9.964,-2.536 -9.964,-9.006 0,-3.439 1.303,-5.575 3.242,-7.02 -1.537,-1.146 -3.141,-2.689 -3.141,-4.88 0,-1.645 0.652,-2.942 1.954,-3.738 -1.256,-0.839 -2.944,-2.835 -2.944,-5.274 0,-4.925 3.934,-6.919 10.25,-6.919 7.869,0 12.651,1.841 12.651,8.473 0,5.268 -2.987,6.51 -7.918,6.806 l -6.869,0.408 c -1.942,0.092 -2.738,0.244 -2.738,1.592 0,0.742 0.556,1.493 1.395,2.183 1.149,-0.394 2.583,-0.643 4.082,-0.643 5.772,0 9.903,2.64 9.903,9.061 0,2.241 -1.039,3.631 -1.786,4.377 M -44.257,-28.32 c 0,1.291 0.504,2.243 1.098,3.19 0,0 0.697,-0.104 1.051,-0.104 l 6.259,-0.345 c 3.247,-0.199 4.249,-0.498 4.249,-2.695 0,-2.926 -2.195,-4.232 -7.481,-4.232 -3.537,0 -5.176,1.548 -5.176,4.186 m 10.356,19.864 c 0,-3.488 -1.442,-5.375 -4.577,-5.375 -3.036,0 -4.585,1.835 -4.585,5.375 0,3.587 1.447,5.28 4.585,5.28 2.935,0 4.577,-1.804 4.577,-5.28 m -21.454,3.434 c 1.65,0 3.589,-0.496 3.589,-0.496 v 5.726 c 0,0 -1.245,0.293 -2.541,0.293 -3.787,0 -5.278,-3.587 -5.278,-3.587 L -60.329,0 h -4.486 v -26.381 h 5.679 v 19.813 c 0,0 1.439,1.546 3.781,1.546 m -15.725,-10.005 0.04,1.844 c 0.302,11.501 -5.269,13.684 -9.903,13.684 -5.077,0 -10.711,-2.738 -10.711,-13.684 0,-12.249 6.378,-13.693 11.704,-13.693 3.839,0 7.42,1.297 7.42,1.297 v 4.724 c 0,0 -4.386,-1.337 -7.42,-1.337 -2.391,0 -6.016,0.545 -6.07,7.165 z m -5.483,3.734 h -9.403 c 0.053,5.628 1.732,7.816 5.023,7.816 2.985,0 4.34,-2.087 4.38,-7.816 m -26.586,-15.088 h 5.676 v 19.017 c 0,6.027 -3.037,7.865 -7.418,7.865 -4.728,0 -8.663,-3.535 -8.663,-3.535 L -114.547,0 h -4.533 v -26.381 h 5.68 v 19.72 c 0,0 3.286,2.284 6.615,2.284 2.096,0 3.636,-0.342 3.636,-3.08 z m -21.214,11.354 0.064,1.844 c 0.295,11.501 -5.28,13.684 -9.906,13.684 -5.078,0 -10.714,-2.738 -10.714,-13.684 0,-12.249 6.377,-13.693 11.703,-13.693 3.827,0 7.414,1.297 7.414,1.297 v 4.724 c 0,0 -4.379,-1.337 -7.414,-1.337 -2.39,0 -6.026,0.545 -6.067,7.165 z m -5.465,3.734 h -9.414 c 0.052,5.628 1.745,7.816 5.037,7.816 2.987,0 4.318,-2.087 4.377,-7.816 m -75.015,-15.094 -8.858,15.288 7.853,11.099 h -6.714 l -6.869,-11.299 8.111,-15.583 z m -21.106,0 h 5.674 V 9.46 h -5.674 z m -11.155,0 h 4.882 v 18.324 c 0,7.27 -4.135,8.561 -9.109,8.561 -4.536,0 -8.661,-1.441 -8.661,-1.441 v -4.635 c 0.495,0.147 4.671,1.398 7.709,1.398 2.734,0 4.381,-0.301 4.381,-3.433 v -2.444 h -4.425 c -4.18,0 -10.013,-1.242 -10.013,-8.456 0,-7.124 4.38,-8.369 7.621,-8.369 4.585,0 6.966,3.236 6.966,3.236 z m -0.798,5.932 c 0,0 -2.332,-2.044 -5.077,-2.044 -2.04,0 -3.688,0.645 -3.688,4.282 0,3.879 2.095,4.777 6.128,4.874 l 2.637,0.056 z M -261,-26.387 -254.975,0 h -6.167 l -2.294,-13.89 c -0.599,-3.488 -1.301,-10.152 -1.301,-10.152 0,0 -1.089,6.615 -1.933,10.152 L -269.958,0 h -7.573 l -3.335,-13.89 c -0.842,-3.488 -1.94,-10.152 -1.94,-10.152 0,0 -0.797,6.864 -1.295,10.152 L -286.234,0 h -6.28 l 5.974,-26.387 h 7.517 l 2.991,12.692 c 0.946,4.087 2.286,10.513 2.286,10.513 0,0 1.293,-6.574 2.244,-10.652 l 2.986,-12.553 z m -40.525,0 h 4.876 v 18.324 c 0,7.27 -4.123,8.561 -9.102,8.561 -4.531,0 -8.663,-1.441 -8.663,-1.441 v -4.635 c 0.495,0.147 4.675,1.398 7.716,1.398 2.731,0 4.372,-0.301 4.372,-3.433 v -2.444 h -4.424 c -4.183,0 -10.002,-1.242 -10.002,-8.456 0,-7.124 4.374,-8.369 7.612,-8.369 4.58,0 6.966,3.236 6.966,3.236 z m -0.801,5.932 c 0,0 -2.335,-2.044 -5.074,-2.044 -2.036,0 -3.682,0.645 -3.682,4.282 0,3.879 2.093,4.777 6.121,4.874 l 2.635,0.056 z m -20.255,15.433 c 1.649,0 3.59,-0.496 3.59,-0.496 v 5.721 c 0,0 -1.248,0.295 -2.546,0.295 -3.773,0 -5.282,-3.584 -5.282,-3.584 L -327.554,0 h -4.491 v -26.387 h 5.682 v 19.819 c 0,0 1.44,1.546 3.782,1.546 m -20.86,-21.365 h 4.882 v 18.324 c 0,7.27 -4.138,8.561 -9.117,8.561 -4.526,0 -8.662,-1.441 -8.662,-1.441 v -4.635 c 0.504,0.147 4.677,1.398 7.722,1.398 2.739,0 4.385,-0.301 4.385,-3.433 v -2.444 h -4.438 c -4.183,0 -10.002,-1.242 -10.002,-8.456 0,-7.124 4.385,-8.369 7.615,-8.369 4.577,0 6.969,3.236 6.969,3.236 z m -0.79,5.932 c 0,0 -2.345,-2.044 -5.091,-2.044 -2.03,0 -3.675,0.645 -3.675,4.282 0,3.879 2.089,4.777 6.127,4.874 l 2.639,0.056 z m -30.575,13.533 c 0,2.149 1.648,2.837 4.233,2.837 2.446,0 6.124,-1.088 6.124,-1.088 v 4.53 c 0,0 -2.891,1.141 -6.469,1.141 -5.086,0 -9.309,-2.14 -9.309,-7.764 0,-4.684 3.338,-6.369 5.527,-7.272 l 2.336,-0.946 c 1.995,-0.793 3.49,-1.344 3.49,-3.584 0,-2.736 -2.099,-3.185 -4.53,-3.185 -2.093,0 -6.376,1.291 -6.376,1.291 v -4.773 c 0,0 3.587,-1.147 6.622,-1.147 4.627,0 9.753,1.098 9.753,8.111 0,4.578 -2.639,6.471 -5.378,7.516 l -2.537,0.952 c -1.692,0.646 -3.486,1.198 -3.486,3.381"
             style="fill:#5c6062;fill-opacity:1;fill-rule:nonzero;stroke:none"
             id="path42" />
        </g>
      </g>
    </g>
    <g
       id="g44">
      <g
         id="g46">
        <g
           id="g52">
          <g
             id="g54">
            <path
               d="m 228.522,94.515 c 27.669,-36.122 14.805,-60.158 14.805,-60.158 v 0 c 0,0 27.863,25.446 -4.221,72.575 v 0 c -24.606,36.136 -10.78,53.192 -10.78,53.192 v 0 c 0,0 -27.474,-29.495 0.196,-65.609"
               style="fill:url(#linearGradient62);stroke:none"
               id="path64" />
          </g>
        </g>
      </g>
    </g>
  </g>
</svg>
